<?xml version="1.0" encoding="UTF-8"?>
<!-- Generator: visioncortex VTracer 0.6.4 -->
<svg version="1.1" xmlns="http://www.w3.org/2000/svg" width="750" height="733">
<path d="M0 0 C0.684895 0.123216 1.36979 0.246432 2.075439 0.373383 C14.062881 2.577299 25.651216 5.777042 37.25 9.5 C38.005431 9.738044 38.760862 9.976087 39.539185 10.221344 C49.543484 13.405909 58.653298 17.450721 67.82251 22.563965 C71.839517 24.789395 75.984506 26.656709 80.1875 28.5 C89.735417 32.845154 98.20365 38.649864 106.75 44.6875 C107.34168 45.101289 107.933359 45.515078 108.542969 45.941406 C116.961669 51.840495 116.961669 51.840495 119.796875 54.886719 C122.311212 57.204937 124.21881 57.054084 127.554688 56.925781 C129.221704 56.744842 130.880222 56.483499 132.530365 56.185654 C135.554984 55.717674 138.402702 55.529221 141.459473 55.47876 C142.565413 55.459771 143.671353 55.440783 144.810806 55.421219 C146.594418 55.400274 146.594418 55.400274 148.414062 55.378906 C149.662233 55.363372 150.910403 55.347838 152.196396 55.331833 C193.022011 54.919274 228.380168 58.705577 266.869751 72.990906 C268.672155 73.65866 270.479058 74.31423 272.286133 74.969238 C279.401997 77.606023 286.013402 80.720703 292.625 84.4375 C293.573347 84.965532 294.521694 85.493564 295.498779 86.037598 C297.390096 87.095401 299.278784 88.157921 301.164551 89.225586 C303.402584 90.491057 305.650522 91.735911 307.902344 92.976562 C317.40053 98.32255 325.566733 104.997265 333.837402 112.062988 C336.462572 114.292741 339.134912 116.458487 341.8125 118.625 C343.459515 119.977729 345.105483 121.331736 346.75 122.6875 C347.417734 123.230195 348.085469 123.772891 348.773438 124.332031 C358.211974 132.248844 366.25493 141.837076 373.910156 151.445312 C375.657772 153.664538 375.657772 153.664538 377.496094 155.367188 C378.75 156.6875 378.75 156.6875 378.75 158.6875 C379.74 159.0175 380.73 159.3475 381.75 159.6875 C384.879282 163.594323 387.479977 167.851549 390.129395 172.094238 C391.249245 173.886202 392.381243 175.670612 393.522949 177.44873 C410.805085 204.608939 423.773516 236.270826 428.379395 268.230469 C428.735226 270.589551 429.171398 272.913538 429.652344 275.25 C429.79696 275.956165 429.941577 276.662329 430.090576 277.389893 C430.225686 278.044978 430.360796 278.700063 430.5 279.375 C432.913102 291.314242 432.912534 303.551543 432.875 315.6875 C432.878867 316.937891 432.882734 318.188281 432.886719 319.476562 C432.871961 333.733007 431.538003 347.412004 429.013428 361.41748 C428.566015 363.917856 428.140912 366.421363 427.716797 368.925781 C425.849947 379.592167 423.09452 389.641026 419.421356 399.824463 C418.558112 402.219997 417.738709 404.630015 416.914062 407.039062 C413.248237 417.347894 408.958841 427.070395 403.75 436.6875 C403.261929 437.59645 402.773857 438.5054 402.270996 439.441895 C396.204057 450.675803 390.262071 461.139421 381.75 470.6875 C380.136312 472.655233 378.544517 474.639543 376.953613 476.625732 C354.428633 504.712556 326.91904 529.423576 293.989746 544.634766 C291.499583 545.805202 289.042771 547.034581 286.582031 548.265625 C275.057061 553.918425 263.387893 558.400744 251.125 562.125 C250.421877 562.338632 249.718754 562.552264 248.994324 562.772369 C239.226954 565.701398 229.436542 568.097762 219.245605 568.984131 C216.800571 569.284223 214.952396 569.580057 212.75 570.6875 C210.734553 573.483747 209.752341 576.41168 208.75 579.6875 C208.338789 580.781914 207.927578 581.876328 207.503906 583.003906 C207.110742 584.075117 206.717578 585.146328 206.3125 586.25 C203.539424 593.438543 199.979334 600.169686 196.3125 606.9375 C195.775042 607.930803 195.237583 608.924106 194.683838 609.94751 C189.279237 619.781844 183.534505 629.14375 176.3125 637.75 C175.174056 639.125952 174.036034 640.502253 172.898438 641.878906 C172.356709 642.531333 171.81498 643.18376 171.256836 643.855957 C169.273789 646.26633 167.356589 648.72606 165.4375 651.1875 C160.201051 657.741295 154.22878 663.377334 147.882812 668.839844 C145.476232 670.924665 143.112351 673.052715 140.75 675.1875 C139.904375 675.948047 139.05875 676.708594 138.1875 677.492188 C136.683309 678.846924 135.182559 680.205505 133.6875 681.570312 C125.435113 688.990806 116.181352 694.788311 106.625 700.375 C105.687852 700.929941 104.750703 701.484883 103.785156 702.056641 C95.921705 706.68123 88.063772 710.736279 79.527344 713.964844 C78.373064 714.402916 78.373064 714.402916 77.195465 714.849838 C43.912467 727.348308 13.113392 730.83544 -22.25 729.6875 C-23.018281 729.666321 -23.786563 729.645142 -24.578125 729.623322 C-35.462567 729.301697 -45.532663 727.931956 -56.125 725.375 C-57.434616 725.074948 -58.744513 724.77612 -60.054688 724.478516 C-71.426221 721.824776 -82.21647 718.409341 -92.8125 713.5 C-93.661831 713.109092 -94.511162 712.718184 -95.38623 712.31543 C-97.145115 711.504437 -98.902933 710.691127 -100.659668 709.875488 C-103.137154 708.739254 -105.628904 707.644208 -108.128906 706.558594 C-119.244106 701.644422 -128.786226 695.526722 -138.402832 688.110352 C-139.939871 686.926389 -141.496868 685.76839 -143.058594 684.617188 C-147.818379 681.070034 -151.944898 677.103236 -156.085938 672.855469 C-157.97395 670.964049 -159.897648 669.223024 -161.9375 667.5 C-174.56838 656.519888 -184.741499 644.442221 -194.25 630.6875 C-194.686831 630.063755 -195.123662 629.44001 -195.57373 628.797363 C-202.031003 619.510941 -207.013039 609.595945 -211.903564 599.424561 C-212.873301 597.453262 -213.875999 595.498056 -214.89917 593.553955 C-219.654969 584.427292 -223.169366 575.166405 -226.3125 565.375 C-226.569799 564.581794 -226.827098 563.788587 -227.092194 562.971344 C-230.814021 551.405122 -233.801845 539.83653 -235.9375 527.875 C-236.284701 525.932101 -236.284701 525.932101 -236.638916 523.949951 C-239.068075 509.198834 -239.437305 494.466298 -239.436951 479.554199 C-239.437322 477.784337 -239.441705 476.014472 -239.449768 474.244629 C-239.488649 465.155914 -239.447466 456.150848 -238.449219 447.109375 C-238.315559 445.840615 -238.181899 444.571855 -238.044189 443.264648 C-237.773443 440.95424 -237.456085 438.648605 -237.082764 436.352539 C-236.703196 433.185406 -236.537291 430.800467 -237.25 427.6875 C-240.130395 424.060479 -243.57545 421.470814 -247.25 418.6875 C-248.375928 417.594741 -249.476623 416.47457 -250.535156 415.316406 C-251.238018 414.547803 -251.238018 414.547803 -251.955078 413.763672 C-252.627002 413.014404 -252.627002 413.014404 -253.3125 412.25 C-253.764316 411.754355 -254.216133 411.258711 -254.681641 410.748047 C-255.652026 409.681292 -256.617536 408.610087 -257.578857 407.535156 C-258.805162 406.179323 -260.050338 404.840497 -261.305908 403.511719 C-267.375624 396.995884 -272.437295 389.987453 -277.3125 382.5625 C-277.706963 381.965352 -278.101426 381.368204 -278.507843 380.75296 C-284.48149 371.688656 -289.92374 362.65588 -294.25 352.6875 C-294.683931 351.714258 -295.117861 350.741016 -295.564941 349.738281 C-306.172209 325.895964 -306.172209 325.895964 -308.759277 313.827148 C-309.349807 311.252323 -310.045134 308.713166 -310.738281 306.164062 C-315.100763 289.570419 -316.583193 273.41158 -317.128418 256.34375 C-317.23002 253.288337 -317.373365 250.240078 -317.535156 247.1875 C-318.441057 224.494679 -314.702 199.480387 -307.088867 178.110352 C-306.151042 175.401684 -305.311214 172.671858 -304.476562 169.929688 C-300.087024 155.739242 -294.387384 142.705386 -287.25 129.6875 C-286.808335 128.88103 -286.36667 128.074561 -285.911621 127.243652 C-281.579734 119.426823 -277.093248 111.995048 -271.316406 105.144531 C-268.845517 102.206555 -266.517025 99.17534 -264.1875 96.125 C-263.760981 95.570864 -263.334463 95.016729 -262.89502 94.445801 C-261.022949 92.013481 -259.165304 89.573013 -257.339844 87.105469 C-253.953871 82.577983 -250.417279 78.853565 -246.078125 75.226562 C-244.103392 73.608605 -244.103392 73.608605 -241.875 71.3125 C-238.725163 68.162663 -235.425386 65.211866 -232.097412 62.251953 C-230.300535 60.633639 -228.520417 58.996335 -226.764893 57.333252 C-220.137331 51.095361 -213.234197 45.976301 -205.5625 41.0625 C-204.990529 40.693546 -204.418558 40.324592 -203.829254 39.944458 C-195.651449 34.676708 -187.48363 29.739713 -178.599121 25.766113 C-175.782641 24.472909 -173.014959 23.091408 -170.238281 21.714844 C-118.369752 -3.419637 -56.656592 -10.195775 0 0 Z M-130.25 155.6875 C-130.947383 156.257266 -131.644766 156.827031 -132.363281 157.414062 C-134.387074 159.115222 -136.322022 160.87806 -138.25 162.6875 C-138.740005 163.144956 -139.23001 163.602412 -139.734863 164.07373 C-147.125512 171.029764 -153.211627 177.797037 -158.25 186.6875 C-158.757891 187.495742 -159.265781 188.303984 -159.789062 189.136719 C-168.289527 202.672074 -175.874458 219.414005 -176.25 235.6875 C-176.300273 236.999766 -176.350547 238.312031 -176.402344 239.664062 C-176.680789 250.076347 -175.597818 259.538522 -173.25 269.6875 C-172.987031 270.861836 -172.724063 272.036172 -172.453125 273.246094 C-171.0834 279.268298 -171.0834 279.268298 -168.25 284.6875 C-163.904136 284.220421 -161.916737 281.620907 -159 278.5625 C-155.225788 274.668601 -151.395091 270.942542 -147.265625 267.425781 C-144.939219 265.419482 -142.694936 263.333514 -140.4375 261.25 C-135.855981 257.13147 -131.087909 253.47426 -126.041016 249.946777 C-123.918 248.454068 -121.811257 246.939434 -119.703125 245.425781 C-111.667443 239.690273 -103.61212 234.133751 -95.0625 229.1875 C-94.361411 228.781768 -93.660322 228.376035 -92.937988 227.958008 C-91.043185 226.865747 -89.146762 225.776353 -87.25 224.6875 C-80.563954 220.822839 -76.805034 217.551286 -73.25 210.6875 C-72.360547 209.061348 -72.360547 209.061348 -71.453125 207.402344 C-68.280918 201.579195 -65.242361 195.703884 -62.345215 189.739258 C-54.055499 172.742628 -43.724361 157.430084 -30.824219 143.578125 C-26.323824 138.52457 -22.298308 133.105342 -18.25 127.6875 C-18.58 127.0275 -18.91 126.3675 -19.25 125.6875 C-56.836066 116.65346 -101.360939 131.258943 -130.25 155.6875 Z M213.75 215.6875 C212.539591 216.675843 212.539591 216.675843 212.643204 218.582413 C212.651457 219.413813 212.65971 220.245213 212.668213 221.101807 C212.674744 222.045325 212.681275 222.988843 212.688004 223.960953 C212.699439 224.996065 212.710874 226.031177 212.722656 227.097656 C212.735341 229.309243 212.747699 231.520832 212.759766 233.732422 C212.784201 237.202454 212.811735 240.672384 212.845947 244.142334 C213.03038 264.103224 212.555531 284.033324 208.75 303.6875 C208.024643 307.517831 207.322581 311.352025 206.625 315.1875 C206.350671 316.612679 206.350671 316.612679 206.070801 318.06665 C203.927815 329.857127 204.52759 339.757168 207.875 351.25 C208.193398 352.392029 208.511797 353.534058 208.839844 354.710693 C210.441611 360.390664 212.156562 366.01581 214.033691 371.610107 C217.202257 381.075847 219.427442 390.684149 221.5 400.4375 C221.648887 401.131429 221.797773 401.825357 221.951172 402.540314 C223.810061 411.260442 225.26606 419.916105 226.231445 428.782227 C226.48503 431.803769 226.48503 431.803769 228.75 433.6875 C238.727788 432.728935 248.914859 421.95068 254.941406 414.652344 C256.75 412.6875 256.75 412.6875 259.152344 410.863281 C262.309883 408.218546 264.427071 405.31086 266.75 401.9375 C267.189329 401.307712 267.628657 400.677925 268.081299 400.029053 C269.312908 398.254336 270.532602 396.471979 271.75 394.6875 C272.248867 393.97207 272.747734 393.256641 273.261719 392.519531 C288.864619 369.037426 295.332253 337.630391 290.245605 309.941895 C285.709361 287.955109 276.274887 266.167765 260.75 249.6875 C259.841319 248.658391 258.93529 247.626938 258.03125 246.59375 C252.5305 240.373983 247.100536 235.076607 240.1875 230.382812 C238.070556 228.910451 236.295486 227.399377 234.4375 225.625 C231.151968 222.70899 227.400453 220.775862 223.5 218.8125 C222.884714 218.501755 222.269429 218.191011 221.635498 217.87085 C218.80957 216.497701 216.933008 215.6875 213.75 215.6875 Z M82.4375 230.8125 C81.649883 231.455742 80.862266 232.098984 80.050781 232.761719 C79.291523 233.397227 78.532266 234.032734 77.75 234.6875 C77.124805 235.188945 76.499609 235.690391 75.855469 236.207031 C71.297362 239.942003 67.537033 244.188915 63.75 248.6875 C63.305837 249.190798 62.861675 249.694097 62.404053 250.212646 C58.588573 254.563915 55.224798 259.116297 51.9375 263.875 C50.877326 265.387437 49.816122 266.899153 48.753906 268.410156 C48.239731 269.142505 47.725557 269.874854 47.195801 270.629395 C40.257326 280.506353 32.704289 289.351103 24.339355 298.026367 C22.998517 299.427759 21.68539 300.855589 20.378906 302.289062 C9.075571 314.38299 -5.989079 321.380557 -20.742676 328.333496 C-24.770727 330.233183 -28.793837 332.143033 -32.8125 334.0625 C-33.494485 334.38823 -34.176469 334.71396 -34.87912 335.049561 C-44.921844 339.867557 -54.271357 345.057701 -63.25 351.6875 C-64.918691 352.718105 -64.918691 352.718105 -66.621094 353.769531 C-67.488633 354.402461 -68.356172 355.035391 -69.25 355.6875 C-69.25 356.6775 -69.25 357.6675 -69.25 358.6875 C-66.626651 359.297794 -64.003039 359.906926 -61.37915 360.514893 C-59.048586 361.055004 -56.718355 361.596551 -54.388428 362.139404 C-48.423942 363.522064 -42.457323 364.867827 -36.460938 366.105469 C-0.102784 373.665851 31.41424 387.268915 60.898438 409.769531 C64.569294 412.565713 68.287977 415.283062 72.0625 417.9375 C73.089883 418.664531 74.117266 419.391562 75.175781 420.140625 C77.678035 421.945035 77.678035 421.945035 80.75 421.6875 C81.15046 413.514365 79.896148 405.948137 78.375 397.9375 C75.363622 381.290948 73.141084 364.638948 73.75 347.6875 C73.764019 346.97481 73.778037 346.262119 73.79248 345.527832 C74.204455 324.933377 78.869113 306.337774 85.132568 286.811768 C91.136365 267.911053 95.809695 247.293819 90.75 227.6875 C86.29236 227.6875 85.721893 228.117314 82.4375 230.8125 Z M-118.25 490.6875 C-114.664025 514.232259 -104.806081 537.148596 -88.292969 554.503906 C-86.25 556.6875 -86.25 556.6875 -84.3125 559.1875 C-72.037306 574.066524 -48.857344 586.671861 -29.769531 589.367188 C-4.035472 591.709244 16.760389 584.519369 37.75 569.6875 C39.455501 568.060594 41.122595 566.392524 42.75 564.6875 C43.598203 563.8625 44.446406 563.0375 45.320312 562.1875 C46.163359 561.3625 47.006406 560.5375 47.875 559.6875 C48.723203 558.8625 49.571406 558.0375 50.445312 557.1875 C54.379713 553.017898 54.379713 553.017898 55.75 547.6875 C55.184182 547.427593 54.618364 547.167686 54.0354 546.899902 C34.430782 537.840743 15.676726 527.522783 -2.8125 516.375 C-3.624368 515.886606 -4.436235 515.398213 -5.272705 514.89502 C-11.681667 511.036969 -11.681667 511.036969 -14.432129 509.345703 C-16.485777 508.086725 -18.553154 506.853733 -20.625 505.625 C-21.478802 505.087823 -21.478802 505.087823 -22.349854 504.539795 C-35.592324 496.817038 -54.272685 497.021292 -69.125 495.1875 C-97.328969 491.694855 -97.328969 491.694855 -109.410645 489.220703 C-113.487047 488.455195 -114.710714 488.327976 -118.25 490.6875 Z " fill="#00437A" transform="translate(317.25,3.3125)"/>
</svg>
